{
  "accessors": [
    {
      "bufferView": 2,
      "componentType": 5126,
      "count": 926,
      "max": [
        1.114319086074829,
        0.21148410439491272,
        0.6133196353912354
      ],
      "min": [
        -1.114319086074829,
        -0.24151934683322906,
        0.009552489966154099
      ],
      "type": "VEC3"
    },
    {
      "bufferView": 2,
      "byteOffset": 11112,
      "componentType": 5126,
      "count": 926,
      "max": [
        0.9995390772819519,
        0.9573471546173096,
        0.7692676186561584
      ],
      "min": [
        -0.9995390176773071,
        -0.9750027060508728,
        -0.9594055414199829
      ],
      "type": "VEC3"
    },
    {
      "bufferView": 1,
      "componentType": 5126,
      "count": 926,
      "max": [
        0.8125,
        1.0
      ],
      "min": [
        0.0,
        0.0
      ],
      "type": "VEC2"
    },
    {
      "bufferView": 0,
      "componentType": 5125,
      "count": 1434,
      "type": "SCALAR"
    },
    {
      "bufferView": 2,
      "byteOffset": 22224,
      "componentType": 5126,
      "count": 706,
      "max": [
        1.0528727769851685,
        0.6527240872383118,
        1.6643729209899902
      ],
      "min": [
        -1.0528727769851685,
        -0.011905980296432972,
        0.5196823477745056
      ],
      "type": "VEC3"
    },
    {
      "bufferView": 2,
      "byteOffset": 30696,
      "componentType": 5126,
      "count": 706,
      "max": [
        0.9092368483543396,
        0.9356302618980408,
        0.955697774887085
      ],
      "min": [
        -0.9092370271682739,
        -0.9847000241279602,
        -0.7924827337265015
      ],
      "type": "VEC3"
    },
    {
      "bufferView": 1,
      "byteOffset": 7408,
      "componentType": 5126,
      "count": 706,
      "max": [
        1.0,
        1.0
      ],
      "min": [
        0.0,
        0.3801140785217285
      ],
      "type": "VEC2"
    },
    {
      "bufferView": 0,
      "byteOffset": 5736,
      "componentType": 5125,
      "count": 1050,
      "type": "SCALAR"
    }
  ],
  "asset": {
    "extras": {
      "author": "yalcinn1284 (https://sketchfab.com/yalcinn1284)",
      "license": "CC-BY-4.0 (http://creativecommons.org/licenses/by/4.0/)",
      "source": "https://sketchfab.com/3d-models/low-poly-arms-e8b00a9ec098405783af2cc94a37be67",
      "title": "Low Poly Arms"
    },
    "generator": "Sketchfab-12.68.0",
    "version": "2.0"
  },
  "bufferViews": [
    {
      "buffer": 0,
      "byteLength": 9936,
      "name": "floatBufferViews",
      "target": 34963
    },
    {
      "buffer": 0,
      "byteLength": 13056,
      "byteOffset": 9936,
      "byteStride": 8,
      "name": "floatBufferViews",
      "target": 34962
    },
    {
      "buffer": 0,
      "byteLength": 39168,
      "byteOffset": 22992,
      "byteStride": 12,
      "name": "floatBufferViews",
      "target": 34962
    }
  ],
  "buffers": [
    {
      "byteLength": 62160,
      "uri": "scene.bin"
    }
  ],
  "materials": [
    {
      "doubleSided": true,
      "name": "Material.001",
      "pbrMetallicRoughness": {
        "baseColorFactor": [
          0.8,
          0.400427,
          0.224578,
          1.0
        ],
        "metallicFactor": 0.0,
        "roughnessFactor": 0.8239417257461427
      }
    },
    {
      "doubleSided": true,
      "name": "Material.002",
      "pbrMetallicRoughness": {
        "baseColorFactor": [
          0.0253938,
          0.0253938,
          0.0253938,
          1.0
        ],
        "metallicFactor": 0.0,
        "roughnessFactor": 0.8239417257461427
      }
    }
  ],
  "meshes": [
    {
      "name": "Arm1_Material.001_0",
      "primitives": [
        {
          "attributes": {
            "NORMAL": 1,
            "POSITION": 0,
            "TEXCOORD_0": 2
          },
          "indices": 3,
          "material": 0,
          "mode": 4
        }
      ]
    },
    {
      "name": "Arm1_Material.002_0",
      "primitives": [
        {
          "attributes": {
            "NORMAL": 5,
            "POSITION": 4,
            "TEXCOORD_0": 6
          },
          "indices": 7,
          "material": 1,
          "mode": 4
        }
      ]
    }
  ],
  "nodes": [
    {
      "children": [
        1
      ],
      "matrix": [
        1.0,
        0.0,
        0.0,
        0.0,
        0.0,
        2.220446049250313e-16,
        -1.0,
        0.0,
        0.0,
        1.0,
        2.220446049250313e-16,
        0.0,
        0.0,
        0.0,
        0.0,
        1.0
      ],
      "name": "Sketchfab_model"
    },
    {
      "children": [
        2
      ],
      "matrix": [
        0.009999999776482582,
        0.0,
        0.0,
        0.0,
        0.0,
        0.0,
        0.009999999776482582,
        0.0,
        0.0,
        -0.009999999776482582,
        0.0,
        0.0,
        0.0,
        0.0,
        0.0,
        1.0
      ],
      "name": "822f6c2484a945f18b4f3f8f54d4c479.fbx"
    },
    {
      "children": [
        3
      ],
      "name": "RootNode"
    },
    {
      "children": [
        4,
        5
      ],
      "matrix": [
        1.9176467650078556e-06,
        0.0,
        -25.40000152587883,
        0.0,
        -25.400001525878494,
        -4.138185510789679e-06,
        -1.9176467635978723e-06,
        0.0,
        -4.138185513609646e-06,
        25.40000152587857,
        -3.101963317149936e-13,
        0.0,
        0.0,
        0.0,
        0.0,
        1.0
      ],
      "name": "Arm1"
    },
    {
      "mesh": 0,
      "name": "Arm1_Material.001_0"
    },
    {
      "mesh": 1,
      "name": "Arm1_Material.002_0"
    }
  ],
  "scene": 0,
  "scenes": [
    {
      "name": "Sketchfab_Scene",
      "nodes": [
        0
      ]
    }
  ]
}
